# xmcd
#
# Track frame offsets: 
#        182
#        21270
#        38177
#        62082
#        82057
#        99302
#        118317
#        134722
#        153127
#        172635
#
# Disc length: 2530 seconds
#
# Revision: 2
# Processed by: cddbd v1.5.2PL0 Copyright (c) Steve Scherf et al.
# Submitted via: ExactAudioCopyFreeDBPlugin 1.0
#
DISCID=7e09e00a
DTITLE=黎明 - 天地情緣
DYEAR=1994
DGENRE=Chinese Pop
TTITLE0=那有一天不想你
TTITLE1=不醉舞夜
TTITLE2=藍色街燈
TTITLE3=Goodbye My Love
TTITLE4=最後的戀愛
TTITLE5=一段盟誓
TTITLE6=獻出激情
TTITLE7=不該再讓你孤單
TTITLE8=晨曦
TTITLE9=我的親愛還是你
EXTD=
EXTT0=
EXTT1=
EXTT2=
EXTT3=
EXTT4=
EXTT5=
EXTT6=
EXTT7=
EXTT8=
EXTT9=
PLAYORDER=
